<svg xmlns="http://www.w3.org/2000/svg" width="970.667" height="424" viewBox="0 0 728 318"><path fill="#fff" d="M285.6 33.7c-1 4.3-2 11.6-2.2 16.3s-.6 11.3-.8 14.7l-.4 6.2 4.2.8c3.9.8 4.1 1 4.2 4.6s0 3.7-3.2 3.7c-3.3 0-4.5 1.2-2.4 2.5.5.3 1.5 1.5 2 2.6.9 1.6.6 2.1-1.6 3.1l-2.6 1.2 2.7 2.2 2.8 2.2L286 97c-1.9 2.6-2 3.4-.9 4.1.8.5 2.3.7 3.4.5 4.8-1.2 4.8-1.3 4.3 37.8-.3 20.1-.3 36.6-.1 36.6s1.7-.7 3.3-1.5c3.3-1.7 3.6-1.4 1.9 1.7-1 1.9-.9 2 1.7 1.5 1.6-.3 3.8-.8 5-1.2 1.9-.6 2.2-.2 2.8 3.6l.7 4.3 9.4-9.5 9.4-9.4.5-7.5c.2-4.1.5-9.6.5-12.3l.1-4.7h9.8c6.5 0 10.4.4 11.6 1.3 2.1 1.6 4.3 10.4 5.2 21.1.9 10.5 1.5 11.1 14.5 12.5 5.7.6 12.1 1.4 14.2 1.7 3.9.5 12 4.1 16.9 7.5 1.4 1.1 2.8 1.9 3 1.9.3 0 .1-2.1-.3-4.8-.8-5.4-.7-5.5 4.3-7.2 2.1-.6 4-1.5 4.3-1.9.2-.5-5-3.4-11.6-6.5-10.1-4.7-12.8-5.6-17.7-5.6-3.1 0-6.3-.4-7.1-.9-1.6-1-1.9-7.4-.8-17.9l.8-7.2h5.4c5.9 0 5.8-.1 7 7.6.6 4 .8 4.2 5.2 4.8 2.5.3 9 .6 14.4.6h9.8l.3 3.9.3 4 7.3-4.6c3.9-2.5 7.2-4.8 7.2-5.3 0-.8-12.4-7-14-7-.5 0-1 1.2-1 2.6 0 2.3-.3 2.5-2.7 2-1.6-.3-6.3-.8-10.5-1.2-7.7-.6-7.8-.6-8.2-3.8-1.6-10.1-1.7-10.6-3.4-10.7-.9 0-2.9-.3-4.4-.5-1.6-.2-4-.6-5.5-.8-1.6-.2-3.8-.5-5-.5-2.1-.1-2.3-.6-2.3-6 0-3.2.3-8.5.6-11.8l.7-6 10.4-.7c5.7-.4 11.7-.9 13.3-1.3l3-.6v22.1l7.3.6c3.9.3 12.1.7 18 1l10.9.5-.7-8.7c-.4-4.8-1.1-10.9-1.6-13.6-.6-3.1-.5-6.3.1-8.6.8-3.1 4.1-27.5 3.6-27.5 0 0-7.6.1-16.8.3l-16.8.4-.1 4.1c-.1 5.5-.7 11.9-1.1 12.2-.3.3-27.9.8-31.5.6-.7-.1-1.3-.7-1.3-1.5 0-1 2-1.6 7.6-2.1 7.5-.7 7.6-.8 6.9-3.4-.7-2.9-5.4-11.1-8.6-15.2-2-2.6-2.1-2.9-.6-7.5.9-2.7 1.9-7.6 2.3-10.9.8-6.6.9-6.6-5.4-1.1-2 1.8-2.4 1.8-3.2.6-.5-.8-1-2-1-2.6s-1-2-2.2-3c-3-2.7-12.8-8.8-13.3-8.3-.2.2.7 4.3 2 9.1 1.3 4.7 2.1 8.9 1.7 9.2-.3.3-1.8.6-3.3.6-3 0-3-.1-4.4-13.3l-.7-5.8-4.4 6.8c-4.8 7.2-4.9 7.8-3.4 11.9.6 1.5.8 2.9.6 3.2-.3.2-2.6-.1-5.2-.7-2.9-.7-5.1-.8-5.6-.3-1.4 1.4 4.6 12.7 7.8 14.9 5.8 4 6.4 5.1 6.4 10.7 0 4.7-.3 5.4-2.2 6-4.5 1.2-25.5 2.7-33.8 2.4l-8.5-.3v-9l5.3-.3 5.2-.3v-8.8c0-4.8.3-14.4.6-21.2.4-6.8.4-12.1 0-11.8-.4.4-2.3 6.2-4.2 13-4.6 16.3-4.5 15.9-5.4 15.9-.8 0-1.5-3.7-4.1-20.4l-1.2-8-2.3 8.5c-1.2 4.6-2.5 10.6-3 13.4-.7 4.9-.7 4.9-1.4 1.7-.4-1.8-1.3-9.1-2-16.2-.7-7.2-1.6-13-2-13s-1.5 3.5-2.4 7.7m151.1 40.6c-.4 2.9-1.5 8-2.5 11.3l-1.8 5.9h-8.7c-11.7-.1-12.5-.9-12.9-12.5l-.3-8.5 7-.5c3.9-.3 9.9-.6 13.4-.8l6.4-.3zm-12.5 20.3 7.5.7 1.1 5.6c.6 3.1 1.5 8.3 1.8 11.6.7 5.8.6 5.9-1.1 4.5s-1.8-1.3-1.1.5c.6 1.6.5 1.8-.5.7-.7-.6-1.7-1.2-2.2-1.2-.4 0-.5.6-.1 1.2.4.7-.2.4-1.4-.6-2.1-1.9-2.2-1.9-2.2 0 0 1.6-.5 1.3-3.2-1.3l-3.1-3.1 1.7-6.1c1.6-5.6 1.4-11.1-.4-11.1-1.5 0-3 8.7-2.6 15.2.5 6.9.1 7.8-2.3 5.5-1.1-1-1.4-.9-1.8.1s-.9.9-2.4-.4c-1.2-1.1-1.9-1.3-1.9-.5 0 .7-.4.9-1 .6-1.1-.7-1.3-7.4-.4-16.4l.7-6.1h3.7c2 0 7.1.3 11.2.6M325 99c16.2 1.5 15.1.9 14.8 9.3-.3 8.1 1.2 7.1-16.3 10.7-5.5 1.2-10 2.2-10.1 2.3s-.5 5.1-.8 11.2c-1.3 23.9-1.4 24.2-6.5 31.8-4.2 6.4-4.6 6.8-5.2 4.6-1.1-3.8-1-13.5.3-42.6l1.2-27.3 4.1-.9c2.2-.5 4.7-.7 5.5-.5.8.1 6.7.8 13 1.4"/><path fill="#fff" d="M426.7 75.7c-.9 2.6-1.7 7-1.6 9.8 0 4 .2 4.5.9 2.5 3-9.3 3.7-12.5 3.1-14.7s-.8-2-2.4 2.4m-13.5 1.1c-1 3.6-1 5.5-.1 8.2 1.8 5.5 2.9 5.8 3 .9.3-12.9-1-16.8-2.9-9.1m6.5.4c-1.8 5.8-2.3 12.8-.9 12.8s3.8-11.4 3.2-15l-.6-3.5zm-7.1 22.5c-1.6 5-1.5 11.6.4 12.8 1.6 1 3.1-7 2.3-12.5l-.9-5.5zm11.6 1.7c-.8 3.2-.8 5.3 0 8.2l1.1 3.9 1.3-4.9c1.2-4.7 1-10.1-.5-11.1-.4-.2-1.2 1.6-1.9 3.9m67 116.1L489 222h3.7c2.7 0 4.9-1 9-4.1 2.9-2.3 5.3-4.3 5.3-4.5s-3.1-.4-6.8-.4h-6.8zM39 256v28h35v-12H52v-44H39zm43 0v28h12v-56H82zm24-23.5v4.5h12v-9h-12zm24 23.5v28h6.1c5.7 0 6-.1 5.4-2.1-.7-2.2-.7-2.2 2.6.2 4.8 3.4 14 3.4 18.8 0 5-3.6 8.1-11 8.1-19.5 0-13.2-6.5-20.9-17.6-20.8-4.2 0-6.5.6-8.5 2.1l-2.9 2.2V228h-12zm26.1-3.1c2.7 2.7 2.9 3.5 2.9 9.9 0 6.1-.3 7.5-2.6 10.1-3.4 4.1-7.5 4.2-11.5.2-2.9-3-3.5-5.4-3-13.1.6-8.9 8.4-12.8 14.2-7.1M349 236.5c0 4.7-.2 8.5-.4 8.5s-1.7-.7-3.2-1.5c-1.6-.8-5-1.5-7.5-1.5-5.9 0-10.5 3-13.9 9-2 3.7-2.5 5.9-2.5 12.5 0 10.3 3 16.1 10.1 19.5 5.2 2.6 12.2 2.4 15.3-.4 2.2-2 3.1-2 3.1-.1 0 1.2 1.3 1.5 5.5 1.5h5.5v-56h-12zm-2.2 17c4.2 5.3 3.5 17.7-1.1 21-2.9 2-7 1.9-9-.3-4.2-4.7-4.1-16.8.4-21.3 2.7-2.7 7.3-2.5 9.7.6M444 256v28h12v-56h-12zm22-21.5c0 6.3.1 6.5 2.5 6.5 1.9 0 2.5.5 2.5 2 0 1.2-1.1 3.2-2.5 4.6s-2.5 3.6-2.5 4.9c0 1.9.4 2.2 2.3 1.7 7.1-1.8 9.9-6.6 10.3-17.9l.3-8.3H466zm22.8 20.2c-.2 14.8-.1 27.4.1 28 .2.9 2.4 1.3 6.7 1.3h6.4v-56h-12.9zM588 237v9l-3.2-2c-6-3.7-14.4-2.3-19.5 3.2-6.9 7.4-7.2 24.7-.5 32.1 4.9 5.5 14.2 7.2 20 3.7 3.9-2.4 4.2-2.4 4.2-.4 0 1.2 1 1.4 5.3 1.2l5.2-.3.3-27.8.2-27.7h-12zm-3 16c2.6 2.6 3.3 5.9 2.8 12.6-.8 9.4-7.5 13.5-12.9 7.8-2.1-2.2-2.4-3.5-2.4-9.9s.3-7.7 2.4-9.9c3-3.1 7.3-3.4 10.1-.6m-362.3-10.6c-9.7 2.6-15.5 12.1-14.4 23.7 1.1 12.2 8.2 18.9 20.1 18.9 7.5 0 13-2.4 17.4-7.5l3.4-3.7-4.2-2.4-4.1-2.4-3.5 3.5c-3.7 3.7-8.4 4.6-12.6 2.4-1.6-.9-4.8-6.4-4.8-8.3 0-.3 6.6-.7 14.7-.8l14.8-.3-.3-4.5c-.8-10.3-6.6-17.2-16.2-19-2.9-.5-5.3-1-5.4-.9 0 0-2.3.6-4.9 1.3m11.8 10.1c4.6 4.5 3.5 5.5-6 5.5h-8.6l1.6-3c2.9-5.5 8.9-6.7 13-2.5m32.9-10.6c-14.1 3.6-16.7 19.8-3.9 24 1.7.6 5.6 1.5 8.8 2.1 6.8 1.4 8.2 3.3 4.6 6.2-3 2.5-8.8 1.8-13.9-1.6l-3.6-2.4-3.7 3.4-3.7 3.4 4 2.9c7.7 5.6 19.4 6.5 27.9 2.1 4.9-2.4 7.1-6.3 7.1-12.4 0-6.9-3-8.9-20-13.3-4.7-1.2-4.8-4.3-.2-5.5 2.5-.7 4.3-.4 7.8 1.1 4.9 2.2 6.4 1.9 9.8-1.8 2.5-2.7 1.1-4.5-5.2-6.5-6.2-2-12-2.7-15.8-1.7m117.1.6c-8.9 2.4-14.5 10.6-14.5 21.6 0 13 7.8 20.9 20.6 20.9 7.3 0 12.8-2.4 17.3-7.5l3.3-3.8-4.3-2.3-4.4-2.2-3.3 3.4c-3.5 3.6-8.2 4.5-12.3 2.4-1.9-1-4.9-5.9-4.9-8 0-.6 5-1 14.3-1 7.9 0 14.6-.2 14.9-.5.2-.3.1-3-.3-6.1-1.8-13.2-13.1-20.4-26.4-16.9m12 10c4.6 4.5 3.5 5.5-5.9 5.5-8 0-8.4-.1-7.9-2 .8-2.9 5.1-6 8.5-6 1.7 0 3.9 1 5.3 2.5m228-10.6c-8.6 2.2-13.7 7.8-15.4 16.8-1.6 8.2.8 17.2 5.5 21.4 8.6 7.5 24.6 6.3 31.9-2.3 1.4-1.6 2.5-3.4 2.5-3.9s-1.8-1.8-3.9-2.9l-3.9-2-3.5 3.5c-4.6 4.6-9.5 4.8-13.8.6-1.6-1.6-2.9-3.9-2.9-5 0-2 .5-2.1 14.5-2.1H650v-2.8c0-8-5-16.7-11.5-20-2.9-1.5-10.5-2.2-14-1.3m9.7 10.1c1.4 1.1 2.8 2.9 3.1 4 .5 1.9.1 2-7.9 2-5.3 0-8.4-.4-8.4-1.1 0-2 5.8-6.9 8.3-6.9 1.3 0 3.6.9 4.9 2m-435.9-8.7c-1.7.7-3.5 1.5-3.9 1.9-1.2 1.3-2.4.9-2.4-.7 0-1.2-1.3-1.5-6-1.5h-6v41h12v-13.5c0-12.9.1-13.5 2.3-14.9 1.2-.8 3.9-1.8 6-2.1l3.7-.7v-5.4c0-5.9-.3-6.1-5.7-4.1m331.4.6c-2.9 1.5-3.7 1.6-3.7.5 0-1-1.5-1.4-6-1.4h-6v41h11.9l.3-14.6c.3-13.9.4-14.7 2.7-16.5 3-2.4 5.6-2.4 8.1.1 1.8 1.8 2 3.3 2 16.5V284h12.1l-.3-18.1-.3-18.1-3.3-2.9c-2.7-2.4-4.1-2.9-8.5-2.9-3.2 0-6.7.7-9 1.9m-423.5 19.3.3 20.3 5.8.3 5.7.3V243h-12zM655 243.5c0 .3 2.7 4.5 5.9 9.4l5.9 8.7-4.7 7.5c-2.6 4.1-5.8 9.1-7 11.1l-2.3 3.8h13.1l3.3-6c1.8-3.3 3.5-6 3.8-6s2.2 2.7 4.3 6l3.7 6h6c3.3 0 6-.3 6-.7 0-.3-3-5.3-6.6-11l-6.6-10.3 4.7-7.2c2.5-4 5.3-8.3 6.2-9.6l1.5-2.2H679l-1.9 3.7c-3.7 7-3.7 7-6.5 1.5L668 243h-6.5c-3.6 0-6.5.2-6.5.5"/></svg>
